<?xml version="1.0" encoding="utf-8"?>
<!-- Generator: Adobe Illustrator 24.0.0, SVG Export Plug-In . SVG Version: 6.00 Build 0)  -->
<svg version="1.1" id="圖層_1" xmlns="http://www.w3.org/2000/svg" xmlns:xlink="http://www.w3.org/1999/xlink" x="0px" y="0px"
	 viewBox="0 0 640 303" style="enable-background:new 0 0 640 303;" xml:space="preserve">
<path d="M170.5,44.9v217.5h23.4l7.7,26.4l42-26.4h49.5V44.9H170.5z M268.3,238.8h-27.9l-27.9,17.5l-5.1-17.5h-11.9V68.5h72.8V238.8z
	 M149.8,144.4H97.5c1.7-27.1,2.2-51.6,2.2-73.5h51.2c0,0,2-22.6-8.6-22.3H53.8C57.3,35.6,61.6,22,66.9,8c0,0-24.1,0-32.3,21.6
	c-3.4,8.9-13.2,43.1-30.7,78.1c5.9-0.6,25.4-1.2,36.8-22.2c2.1-5.9,2.5-6.7,5.1-14.5h28.9c0,10.5-1.2,66.9-1.7,73.4H20.8
	C9.1,144.4,5.3,168,5.3,168h65.6c-4.4,49.9-28,91.9-70.8,125.1c20.5,5.9,40.9-0.9,51-9.9c0,0,23-20.9,35.6-69.3l54,64.9
	c0,0,7.9-26.9-1.2-40c-7.6-8.9-28.1-33.1-36.8-41.8l-14.6,11.6c4.4-14,7-27.5,7.9-40.7h61.7C157.4,168.1,157.3,144.4,149.8,144.4
	L149.8,144.4L149.8,144.4z M561.8,142.8c20.8-25.6,45-58.6,45-58.6s-18.7-14.8-27.4-4.1c-6,8.1-36.8,48.2-36.8,48.2L561.8,142.8
	L561.8,142.8z M411.8,83.8c-9-8.2-25.9,2.1-25.9,2.1s39.5,55,41.1,57.4l19.5-13.7C446.4,129.6,420.8,92,411.8,83.8L411.8,83.8
	L411.8,83.8z M640,155.1c-19.8,0-130.9,0.9-131.1,0.9V55c4.8,0,12.4-0.4,22.8-1.2c40.9-2.4,70.1-4,87.8-4.8c0,0,12.2-27.2-0.6-33.4
	c-3.1-1.2-23.2,4.6-23.2,4.6s-165.1,16.5-232.3,18c1.6,8.8,7.6,17.1,15.8,19.6c13.3,3.5,22.7,1.7,49.1,0.9
	c24.8-1.6,43.7-2.4,56.5-2.4v99.8H351.4c0,0,2.8,22.3,25.5,22.9h107.9v70.9c0,14-11.2,22-24.5,21.1c-14.1,0.1-26.1-1.2-41.7-1.8
	c2,4,6.3,14.4,19.3,21.8c9.9,4.8,16.2,6.6,26,6.6c29.6,0,45.7-17.3,44.9-45.3V179h122.4C640.9,178.9,640,155.1,640,155.1L640,155.1
	L640,155.1z"/>
</svg>
